<?xml version="1.0" encoding="UTF-8" standalone="no"?>
<svg
   xmlns:dc="http://purl.org/dc/elements/1.1/"
   xmlns:cc="http://creativecommons.org/ns#"
   xmlns:rdf="http://www.w3.org/1999/02/22-rdf-syntax-ns#"
   xmlns:svg="http://www.w3.org/2000/svg"
   xmlns="http://www.w3.org/2000/svg"
   xmlns:sodipodi="http://sodipodi.sourceforge.net/DTD/sodipodi-0.dtd"
   xmlns:inkscape="http://www.inkscape.org/namespaces/inkscape"
   height="24px"
   style="enable-background:new 0 0 32 24;"
   version="1.1"
   viewBox="0 0 32 24"
   width="32px"
   xml:space="preserve"
   id="svg14"
   sodipodi:docname="arrow_down.svg"
   inkscape:version="0.92.1 r15371"><metadata
     id="metadata20"><rdf:RDF><cc:Work
         rdf:about=""><dc:format>image/svg+xml</dc:format><dc:type
           rdf:resource="http://purl.org/dc/dcmitype/StillImage" /><dc:title></dc:title></cc:Work></rdf:RDF></metadata><defs
     id="defs18" /><sodipodi:namedview
     pagecolor="#ffffff"
     bordercolor="#666666"
     borderopacity="1"
     objecttolerance="10"
     gridtolerance="10"
     guidetolerance="10"
     inkscape:pageopacity="0"
     inkscape:pageshadow="2"
     inkscape:window-width="958"
     inkscape:window-height="1008"
     id="namedview16"
     showgrid="false"
     inkscape:zoom="22.627417"
     inkscape:cx="15.416635"
     inkscape:cy="15.088716"
     inkscape:window-x="-7"
     inkscape:window-y="0"
     inkscape:window-maximized="0"
     inkscape:current-layer="svg14" /><g
     id="Layer_1" /><path
     style="fill:#ffffff;stroke:none;stroke-width:0.03503247"
     d="m 18.992878,17.921211 -3.170294,-3.170439 h 1.585147 1.585147 l -3.62e-4,-0.919602 c -2.09e-4,-0.505782 -0.01685,-1.108778 -0.03701,-1.339992 C 18.630756,8.7664277 15.787353,5.7966773 12.080929,5.3111323 11.262293,5.2038898 10.175908,5.2535593 9.3252997,5.4371185 7.7315897,5.7810374 6.1806552,6.7101383 5.0938776,7.9719902 4.0570983,9.1757869 3.4004265,10.657119 3.211545,12.218189 c -0.025161,0.207947 -0.047457,0.314932 -0.049546,0.237742 -0.00209,-0.07719 0.019453,-0.339116 0.04787,-0.58206 0.5641331,-4.8226259 4.1982957,-8.7242733 8.969192,-9.6293464 1.318718,-0.2501705 2.871806,-0.2432339 4.221412,0.018855 1.618976,0.3143991 3.309017,1.0828332 4.631605,2.1059157 1.950165,1.5085424 3.366215,3.6677569 3.968391,6.0510631 0.26215,1.037538 0.308098,1.451528 0.330934,2.981664 l 0.01986,1.331235 1.567797,0.01752 1.567797,0.01752 -3.161846,3.161682 -3.161848,3.16168 z"
     id="path4541"
     inkscape:connector-curvature="0" /></svg>