<?xml version="1.0" encoding="UTF-8" standalone="no"?>
<svg
   xmlns:dc="http://purl.org/dc/elements/1.1/"
   xmlns:cc="http://creativecommons.org/ns#"
   xmlns:rdf="http://www.w3.org/1999/02/22-rdf-syntax-ns#"
   xmlns:svg="http://www.w3.org/2000/svg"
   xmlns="http://www.w3.org/2000/svg"
   xmlns:sodipodi="http://sodipodi.sourceforge.net/DTD/sodipodi-0.dtd"
   xmlns:inkscape="http://www.inkscape.org/namespaces/inkscape"
   height="28px"
   style="enable-background:new 0 0 28 28;"
   version="1.1"
   viewBox="0 0 28 28"
   width="28px"
   xml:space="preserve"
   id="svg4568"
   sodipodi:docname="close.svg"
   inkscape:version="0.92.1 r15371"><metadata
     id="metadata4574"><rdf:RDF><cc:Work
         rdf:about=""><dc:format>image/svg+xml</dc:format><dc:type
           rdf:resource="http://purl.org/dc/dcmitype/StillImage" /><dc:title></dc:title></cc:Work></rdf:RDF></metadata><defs
     id="defs4572" /><sodipodi:namedview
     pagecolor="#ffffff"
     bordercolor="#666666"
     borderopacity="1"
     objecttolerance="10"
     gridtolerance="10"
     guidetolerance="10"
     inkscape:pageopacity="0"
     inkscape:pageshadow="2"
     inkscape:window-width="1920"
     inkscape:window-height="1017"
     id="namedview4570"
     showgrid="false"
     inkscape:zoom="22.627418"
     inkscape:cx="20.364416"
     inkscape:cy="15.167132"
     inkscape:window-x="-8"
     inkscape:window-y="-8"
     inkscape:window-maximized="1"
     inkscape:current-layer="svg4568" /><g
     id="Layer_1" /><path
     style="fill:#ffffff;stroke:none;stroke-width:0.09524567"
     d="M 23.00813,23.213867 21.899743,24.310211 18.536336,20.912505 14.042706,16.374576 9.5295904,20.846521 6.1561178,24.187519 5.0361465,23.055484 3.9157555,21.923025 7.2880981,18.580886 11.800203,14.107681 7.3074864,9.5683914 3.9443975,6.1698648 5.076151,5.0488808 6.2075878,3.9282114 9.5718182,7.3256087 14.065222,11.864452 18.602259,7.3687909 21.99883,4.0037642 l 1.120438,1.1325067 1.120488,1.1325585 -3.396005,3.365597 -4.535455,4.4963526 4.468714,4.516195 c 1.836815,1.856292 3.339768,3.396425 3.339643,3.422767 -1.43e-4,0.02635 0.128161,-0.08052 -1.108551,1.144143 z"
     id="path4576"
     inkscape:connector-curvature="0"
     sodipodi:nodetypes="cccccccccccccccccccccccccc" /><path
     style="fill:#b3b3b3;stroke:none;stroke-width:0.00390625"
     d=""
     id="path4584"
     inkscape:connector-curvature="0" /></svg>