<?xml version="1.0" encoding="UTF-8" standalone="no"?>
<svg
   xmlns:dc="http://purl.org/dc/elements/1.1/"
   xmlns:cc="http://creativecommons.org/ns#"
   xmlns:rdf="http://www.w3.org/1999/02/22-rdf-syntax-ns#"
   xmlns:svg="http://www.w3.org/2000/svg"
   xmlns="http://www.w3.org/2000/svg"
   xmlns:sodipodi="http://sodipodi.sourceforge.net/DTD/sodipodi-0.dtd"
   xmlns:inkscape="http://www.inkscape.org/namespaces/inkscape"
   height="24px"
   style="enable-background:new 0 0 32 24;"
   version="1.1"
   viewBox="0 0 32 24"
   width="32px"
   xml:space="preserve"
   id="svg3684"
   sodipodi:docname="arrow_up.svg"
   inkscape:version="0.92.1 r15371"><metadata
     id="metadata3690"><rdf:RDF><cc:Work
         rdf:about=""><dc:format>image/svg+xml</dc:format><dc:type
           rdf:resource="http://purl.org/dc/dcmitype/StillImage" /><dc:title></dc:title></cc:Work></rdf:RDF></metadata><defs
     id="defs3688" /><sodipodi:namedview
     pagecolor="#ffffff"
     bordercolor="#666666"
     borderopacity="1"
     objecttolerance="10"
     gridtolerance="10"
     guidetolerance="10"
     inkscape:pageopacity="0"
     inkscape:pageshadow="2"
     inkscape:window-width="958"
     inkscape:window-height="1008"
     id="namedview3686"
     showgrid="false"
     inkscape:zoom="22.627417"
     inkscape:cx="17.404387"
     inkscape:cy="7.4106911"
     inkscape:window-x="953"
     inkscape:window-y="0"
     inkscape:window-maximized="0"
     inkscape:current-layer="svg3684" /><g
     id="Layer_1" /><path
     style="fill:#ffffff;stroke:none;stroke-width:0.03218915"
     d="M 13.467543,21.08251 C 12.793838,21.01697 12.57197,20.988711 12.195486,20.920544 9.9701096,20.517573 7.9630946,19.467956 6.3518575,17.864473 4.7838208,16.303982 3.7235615,14.325286 3.2934995,12.156853 3.2093818,11.732722 3.1115876,10.963477 3.117615,10.773357 c 0.00197,-0.06194 0.023867,0.04572 0.048675,0.239254 0.1045097,0.815274 0.359848,1.675357 0.717456,2.416681 0.415876,0.862114 0.8562556,1.479631 1.5481915,2.17093 0.6839077,0.683278 1.2643293,1.099044 2.1100761,1.511485 0.771493,0.376229 1.469921,0.595477 2.318684,0.727873 0.5836354,0.09103 1.8092744,0.08351 2.3812074,-0.01464 0.856982,-0.147063 1.512357,-0.356831 2.240063,-0.71698 0.814842,-0.403273 1.380903,-0.802313 2.024731,-1.427319 1.035704,-1.005425 1.743003,-2.19162 2.114667,-3.54646 0.228057,-0.83135 0.303391,-1.548692 0.304252,-2.8971401 L 18.926115,8.456814 H 17.34812 c -0.867895,0 -1.577993,-0.01084 -1.577993,-0.024185 0,-0.013295 1.420205,-1.4430354 3.15601,-3.1771743 l 3.156011,-3.1529869 3.180102,3.1771744 3.1801,3.1771743 h -1.581567 -1.58157 l -0.01799,1.1984925 c -0.01952,1.301076 -0.05682,1.738025 -0.216208,2.533729 -0.352627,1.760402 -1.134672,3.416514 -2.290582,4.850701 -0.316644,0.392876 -1.328512,1.380739 -1.735056,1.693897 -1.665713,1.283086 -3.447481,2.023086 -5.509679,2.28827 -0.376316,0.04839 -1.749,0.08914 -2.042153,0.06062 z"
     id="path4550"
     inkscape:connector-curvature="0" /></svg>