<?xml version="1.0" encoding="UTF-8" standalone="no"?>
<svg
   xmlns:dc="http://purl.org/dc/elements/1.1/"
   xmlns:cc="http://creativecommons.org/ns#"
   xmlns:rdf="http://www.w3.org/1999/02/22-rdf-syntax-ns#"
   xmlns:svg="http://www.w3.org/2000/svg"
   xmlns="http://www.w3.org/2000/svg"
   xmlns:sodipodi="http://sodipodi.sourceforge.net/DTD/sodipodi-0.dtd"
   xmlns:inkscape="http://www.inkscape.org/namespaces/inkscape"
   height="32px"
   style="enable-background:new 0 0 32 32;"
   version="1.1"
   viewBox="0 0 32 32"
   width="32px"
   xml:space="preserve"
   id="svg4636"
   sodipodi:docname="maximize_xxs.svg"
   inkscape:version="0.92.1 r15371"><metadata
     id="metadata4642"><rdf:RDF><cc:Work
         rdf:about=""><dc:format>image/svg+xml</dc:format><dc:type
           rdf:resource="http://purl.org/dc/dcmitype/StillImage" /><dc:title></dc:title></cc:Work></rdf:RDF></metadata><defs
     id="defs4640" /><sodipodi:namedview
     pagecolor="#ffffff"
     bordercolor="#666666"
     borderopacity="1"
     objecttolerance="10"
     gridtolerance="10"
     guidetolerance="10"
     inkscape:pageopacity="0"
     inkscape:pageshadow="2"
     inkscape:window-width="1920"
     inkscape:window-height="1017"
     id="namedview4638"
     showgrid="false"
     inkscape:zoom="7.375"
     inkscape:cx="16"
     inkscape:cy="16"
     inkscape:window-x="-8"
     inkscape:window-y="-8"
     inkscape:window-maximized="1"
     inkscape:current-layer="svg4636" /><g
     id="Layer_1" /><g
     id="new_x5F_window"><path
       d="M32,0H8v8C5.094,8,0,8,0,8v24h24v-8h8V0z M20,28H4V16h4v8h12C20,25.789,20,28,20,28z M28,20H12V8h16   V20z"
       style="fill:#4E4E50;"
       id="path4633" /></g><path
     style="fill:#ffffff;stroke:none;stroke-width:0.13559322"
     d="M 0.00604301,20.00678 0.04067797,8.040678 4.0047348,8.0047348 7.9687917,7.9687917 8.0047348,4.0047348 8.040678,0.04067797 20.00678,0.00604301 31.972881,-0.02859194 V 11.972145 23.972881 h -4 -4 v 4 4 H 11.972145 -0.02859195 Z m 20.03463499,6 V 23.972881 H 14.00678 7.9728814 v -4 -4 H 6.0067797 4.040678 v 6.033899 6.033898 h 8 8 z m 8,-12 V 7.9728814 h -8 -8 v 6.0338986 6.033898 h 8 8 z"
     id="path4644"
     inkscape:connector-curvature="0" /></svg>