<?xml version="1.0" encoding="UTF-8" standalone="no"?>
<svg
   xmlns:dc="http://purl.org/dc/elements/1.1/"
   xmlns:cc="http://creativecommons.org/ns#"
   xmlns:rdf="http://www.w3.org/1999/02/22-rdf-syntax-ns#"
   xmlns:svg="http://www.w3.org/2000/svg"
   xmlns="http://www.w3.org/2000/svg"
   xmlns:sodipodi="http://sodipodi.sourceforge.net/DTD/sodipodi-0.dtd"
   xmlns:inkscape="http://www.inkscape.org/namespaces/inkscape"
   height="32px"
   style="enable-background:new 0 0 32 32;"
   version="1.1"
   viewBox="0 0 32 32"
   width="32px"
   xml:space="preserve"
   id="svg3700"
   sodipodi:docname="stream.svg"
   inkscape:version="0.92.1 r15371"><metadata
     id="metadata3706"><rdf:RDF><cc:Work
         rdf:about=""><dc:format>image/svg+xml</dc:format><dc:type
           rdf:resource="http://purl.org/dc/dcmitype/StillImage" /><dc:title></dc:title></cc:Work></rdf:RDF></metadata><defs
     id="defs3704" /><sodipodi:namedview
     pagecolor="#ffffff"
     bordercolor="#666666"
     borderopacity="1"
     objecttolerance="10"
     gridtolerance="10"
     guidetolerance="10"
     inkscape:pageopacity="0"
     inkscape:pageshadow="2"
     inkscape:window-width="1920"
     inkscape:window-height="1017"
     id="namedview3702"
     showgrid="false"
     inkscape:zoom="26.5"
     inkscape:cx="16"
     inkscape:cy="16"
     inkscape:window-x="-8"
     inkscape:window-y="-3"
     inkscape:window-maximized="1"
     inkscape:current-layer="svg3700" /><g
     id="Layer_1" /><g
     id="aperture_x5F_alt"><g
       id="g3697"><path
         d="m 30.309,8.973 -9.973,9.973 H 31.703 C 31.883,17.984 32,17.008 32,16 32,13.467 31.359,11.102 30.309,8.973 Z"
         style="fill:#ffffff"
         id="path3681"
         inkscape:connector-curvature="0" /><path
         d="M 21.055,15.24 29.258,7.041 C 27.305,4.162 24.414,2.02 21.055,0.895 Z"
         style="fill:#ffffff"
         id="path3683"
         inkscape:connector-curvature="0" /><path
         d="m 16.748,21.055 8.205,8.207 c 2.883,-1.949 5.027,-4.844 6.152,-8.207 z"
         style="fill:#ffffff"
         id="path3685"
         inkscape:connector-curvature="0" /><path
         d="M 18.943,11.744 V 0.297 C 17.986,0.119 17.008,0 16,0 13.445,0 11.062,0.654 8.92,1.721 Z"
         style="fill:#ffffff"
         id="path3687"
         inkscape:connector-curvature="0" /><path
         d="M 13.057,20.352 V 31.704 C 14.014,31.883 14.992,32 16,32 c 2.531,0 4.891,-0.641 7.02,-1.688 z"
         style="fill:#ffffff"
         id="path3689"
         inkscape:connector-curvature="0" /><path
         d="M 10.943,16.773 2.75,24.965 c 1.949,2.875 4.838,5.016 8.193,6.141 z"
         style="fill:#ffffff"
         id="path3691"
         inkscape:connector-curvature="0" /><path
         d="M 0.297,13.057 C 0.119,14.014 0,14.992 0,16 c 0,2.539 0.645,4.906 1.695,7.035 l 9.979,-9.979 H 0.297 Z"
         style="fill:#ffffff"
         id="path3693"
         inkscape:connector-curvature="0" /><path
         d="M 6.996,2.781 C 4.141,4.73 2.014,7.604 0.895,10.943 h 14.264 z"
         style="fill:#ffffff"
         id="path3695"
         inkscape:connector-curvature="0" /></g></g></svg>